<?xml version="1.0" encoding="UTF-8" standalone="no"?>
<!DOCTYPE svg PUBLIC "-//W3C//DTD SVG 1.1//EN" "http://www.w3.org/Graphics/SVG/1.1/DTD/svg11.dtd">
<svg width="100%" height="100%" viewBox="0 0 109 309" version="1.1" xmlns="http://www.w3.org/2000/svg" xmlns:xlink="http://www.w3.org/1999/xlink" xml:space="preserve" xmlns:serif="http://www.serif.com/" style="fill-rule:evenodd;clip-rule:evenodd;stroke-linejoin:round;stroke-miterlimit:2;">
    <g>
        <g>
            <path d="M20,287.508L20,283.758L12,283.758L12,287.508C12,292.191 15.809,296 20.492,296L28.309,296C28.34,296 28.371,295.996 28.402,295.996C23.762,295.945 20,292.16 20,287.508Z" style="fill:white;fill-rule:nonzero;"/>
            <path d="M24.398,44.465C19.562,46.942 18.227,55.797 18.008,62.058L22.809,62.058C22.984,56.996 23.895,50.238 26.793,46.528C26.109,45.648 25.316,44.937 24.398,44.465Z" style="fill:white;fill-rule:nonzero;"/>
            <path d="M79.645,205.875L96.262,205.875L96.262,197.875L71.645,197.875L71.645,286.586C71.645,291.093 75.207,294.777 79.664,294.988C79.66,294.851 79.645,294.722 79.645,294.586L79.645,205.875Z" style="fill:white;fill-rule:nonzero;"/>
            <path d="M22.965,82.058L36.801,82.058L36.801,78.648C36.801,76.019 35.234,74.058 33.836,74.058L14.965,74.058C13.566,74.058 12,76.019 12,78.648L12,271.758L20,271.758L20,86.648C20,84.019 21.566,82.058 22.965,82.058Z" style="fill:white;fill-rule:nonzero;"/>
            <path d="M30.777,62.058C30.594,56.992 29.676,50.238 26.793,46.528C23.895,50.238 22.984,56.996 22.809,62.058L30.777,62.058Z" style="fill:rgb(194,151,148);fill-rule:nonzero;"/>
            <path d="M20,86.648L20,271.758L36.801,271.758L36.801,82.058L22.965,82.058C21.566,82.058 20,84.019 20,86.648Z" style="fill:rgb(194,151,148);fill-rule:nonzero;"/>
            <path d="M28.402,295.996C33.039,295.945 36.801,292.16 36.801,287.508L36.801,283.758L20,283.758L20,287.508C20,292.16 23.762,295.945 28.402,295.996Z" style="fill:rgb(194,151,148);fill-rule:nonzero;"/>
            <path d="M42.84,65.426C43.195,54.832 40.773,39.773 30.398,34.054L30.398,6.488C30.398,3.176 27.715,0.488 24.398,0.488C21.086,0.488 18.398,3.176 18.398,6.488L18.398,34.054C8.027,39.777 5.605,54.832 5.961,65.426C2.348,68.457 0,73.25 0,78.648L0,287.508C0,298.808 9.195,308 20.492,308L28.309,308C39.605,308 48.801,298.808 48.801,287.508L48.801,78.648C48.801,73.25 46.453,68.461 42.84,65.426ZM24.398,44.465C25.316,44.937 26.109,45.648 26.793,46.528C29.676,50.238 30.594,56.992 30.777,62.058L18.008,62.058C18.227,55.797 19.562,46.942 24.398,44.465ZM12,78.648C12,76.019 13.566,74.058 14.965,74.058L33.836,74.058C35.234,74.058 36.801,76.019 36.801,78.648L36.801,271.758L12,271.758L12,78.648ZM20.492,296C15.809,296 12,292.191 12,287.508L12,283.758L36.801,283.758L36.801,287.508C36.801,292.16 33.039,295.945 28.402,295.996C28.371,295.996 28.34,296 28.309,296L20.492,296Z" style="fill:rgb(162,82,77);fill-rule:nonzero;"/>
            <path d="M79.645,294.586C79.645,294.722 79.66,294.851 79.664,294.988C79.801,294.992 79.93,295.008 80.066,295.008L87.84,295.008C92.484,295.008 96.262,291.23 96.262,286.586L96.262,205.875L79.645,205.875L79.645,294.586Z" style="fill:rgb(194,151,148);fill-rule:nonzero;"/>
            <path d="M102.262,185.875L65.645,185.875C62.332,185.875 59.645,188.562 59.645,191.875L59.645,286.586C59.645,297.847 68.805,307.008 80.066,307.008L87.84,307.008C99.098,307.008 108.262,297.847 108.262,286.586L108.262,191.875C108.262,188.562 105.574,185.875 102.262,185.875ZM71.645,286.586L71.645,197.875L96.262,197.875L96.262,286.586C96.262,291.23 92.484,295.008 87.84,295.008L80.066,295.008C79.93,295.008 79.801,294.992 79.668,294.988C75.207,294.777 71.645,291.093 71.645,286.586Z" style="fill:rgb(162,82,77);fill-rule:nonzero;"/>
        </g>
    </g>
</svg>
